<mxfile host="Electron" modified="2023-11-06T12:31:25.367Z" agent="Mozilla/5.0 (Windows NT 10.0; Win64; x64) AppleWebKit/537.36 (KHTML, like Gecko) draw.io/21.8.2 Chrome/114.0.5735.289 Electron/25.8.1 Safari/537.36" etag="rv4yg-ML03XU-_fUnst_" version="21.8.2" type="device">
  <diagram name="Page-1" id="lHKCt2FMkADKbh5RZciE">
    <mxGraphModel dx="1036" dy="750" grid="1" gridSize="10" guides="1" tooltips="1" connect="1" arrows="1" fold="1" page="1" pageScale="1" pageWidth="1169" pageHeight="1654" math="0" shadow="0">
      <root>
        <mxCell id="0" />
        <mxCell id="1" parent="0" />
        <mxCell id="by4M8jhouuiLS1jpNMKc-24" value="" style="group" parent="1" vertex="1" connectable="0">
          <mxGeometry x="140" y="280" width="780" height="790" as="geometry" />
        </mxCell>
        <mxCell id="by4M8jhouuiLS1jpNMKc-23" value="" style="rounded=0;whiteSpace=wrap;html=1;" parent="by4M8jhouuiLS1jpNMKc-24" vertex="1">
          <mxGeometry y="176.59" width="780" height="453.41" as="geometry" />
        </mxCell>
        <mxCell id="by4M8jhouuiLS1jpNMKc-22" value="&lt;p style=&quot;margin:0px;margin-top:4px;margin-left:10px;text-align:left;&quot;&gt;&lt;b&gt;STD &lt;/b&gt;DisplayControl&lt;/p&gt;" style="html=1;shape=mxgraph.sysml.package;html=1;overflow=fill;whiteSpace=wrap;labelX=148;" parent="by4M8jhouuiLS1jpNMKc-24" vertex="1">
          <mxGeometry width="780" height="176.58823529411765" as="geometry" />
        </mxCell>
        <mxCell id="by4M8jhouuiLS1jpNMKc-14" value="" style="rhombus;whiteSpace=wrap;html=1;" parent="by4M8jhouuiLS1jpNMKc-24" vertex="1">
          <mxGeometry x="365" y="362.47058823529414" width="50" height="46.470588235294116" as="geometry" />
        </mxCell>
        <mxCell id="4Bl8RoROlAebQCjJiTwi-16" value="&lt;p style=&quot;margin:0px;margin-top:4px;text-align:center;&quot;&gt;gameOver&lt;/p&gt;&lt;hr&gt;&lt;p&gt;&lt;/p&gt;&lt;p style=&quot;margin:0px;margin-left:8px;text-align:left;&quot;&gt;&lt;br&gt;&lt;/p&gt;" style="shape=mxgraph.sysml.simpleState;html=1;overflow=fill;whiteSpace=wrap;align=center;" vertex="1" parent="by4M8jhouuiLS1jpNMKc-24">
          <mxGeometry x="520" y="353.1764705882353" width="170" height="65.05882352941177" as="geometry" />
        </mxCell>
        <mxCell id="4Bl8RoROlAebQCjJiTwi-17" value="" style="endArrow=classic;html=1;rounded=0;" edge="1" parent="by4M8jhouuiLS1jpNMKc-24" source="by4M8jhouuiLS1jpNMKc-14" target="4Bl8RoROlAebQCjJiTwi-16">
          <mxGeometry width="50" height="50" relative="1" as="geometry">
            <mxPoint x="360" y="399.6470588235294" as="sourcePoint" />
            <mxPoint x="410" y="353.1764705882353" as="targetPoint" />
            <Array as="points" />
          </mxGeometry>
        </mxCell>
        <mxCell id="4Bl8RoROlAebQCjJiTwi-23" value="gameOverFlag" style="edgeLabel;html=1;align=center;verticalAlign=middle;resizable=0;points=[];" vertex="1" connectable="0" parent="4Bl8RoROlAebQCjJiTwi-17">
          <mxGeometry x="-0.3295" y="1" relative="1" as="geometry">
            <mxPoint x="10" y="8" as="offset" />
          </mxGeometry>
        </mxCell>
        <mxCell id="4Bl8RoROlAebQCjJiTwi-18" value="&lt;p style=&quot;margin:0px;margin-top:4px;text-align:center;&quot;&gt;drawDisplay&lt;/p&gt;&lt;hr&gt;&lt;p&gt;&lt;/p&gt;&lt;p style=&quot;margin:0px;margin-left:8px;text-align:left;&quot;&gt;&lt;br&gt;&lt;/p&gt;" style="shape=mxgraph.sysml.simpleState;html=1;overflow=fill;whiteSpace=wrap;align=center;" vertex="1" parent="by4M8jhouuiLS1jpNMKc-24">
          <mxGeometry x="305" y="464.70588235294116" width="170" height="65.05882352941177" as="geometry" />
        </mxCell>
        <mxCell id="4Bl8RoROlAebQCjJiTwi-19" value="&lt;p style=&quot;margin:0px;margin-top:4px;text-align:center;&quot;&gt;startUp&lt;/p&gt;&lt;hr&gt;&lt;p&gt;&lt;/p&gt;&lt;p style=&quot;margin:0px;margin-left:8px;text-align:left;&quot;&gt;&lt;br&gt;&lt;/p&gt;" style="shape=mxgraph.sysml.simpleState;html=1;overflow=fill;whiteSpace=wrap;align=center;" vertex="1" parent="by4M8jhouuiLS1jpNMKc-24">
          <mxGeometry x="90" y="353.1764705882353" width="170" height="65.05882352941177" as="geometry" />
        </mxCell>
        <mxCell id="by4M8jhouuiLS1jpNMKc-5" value="idle" style="shape=rect;rounded=1;html=1;whiteSpace=wrap;align=center;" parent="by4M8jhouuiLS1jpNMKc-24" vertex="1">
          <mxGeometry x="340" y="288.11764705882354" width="100" height="37.17647058823529" as="geometry" />
        </mxCell>
        <mxCell id="by4M8jhouuiLS1jpNMKc-8" value="" style="edgeStyle=orthogonalEdgeStyle;rounded=0;orthogonalLoop=1;jettySize=auto;html=1;" parent="by4M8jhouuiLS1jpNMKc-24" source="by4M8jhouuiLS1jpNMKc-5" target="by4M8jhouuiLS1jpNMKc-14" edge="1">
          <mxGeometry x="-0.0083" relative="1" as="geometry">
            <mxPoint x="400" y="390.3529411764706" as="targetPoint" />
            <mxPoint as="offset" />
          </mxGeometry>
        </mxCell>
        <mxCell id="by4M8jhouuiLS1jpNMKc-4" value="" style="shape=ellipse;html=1;fillColor=strokeColor;fontSize=18;fontColor=#ffffff;" parent="by4M8jhouuiLS1jpNMKc-24" vertex="1">
          <mxGeometry x="370" y="213.76470588235293" width="40" height="37.17647058823529" as="geometry" />
        </mxCell>
        <mxCell id="by4M8jhouuiLS1jpNMKc-6" style="edgeStyle=orthogonalEdgeStyle;rounded=0;orthogonalLoop=1;jettySize=auto;html=1;" parent="by4M8jhouuiLS1jpNMKc-24" source="by4M8jhouuiLS1jpNMKc-4" target="by4M8jhouuiLS1jpNMKc-5" edge="1">
          <mxGeometry relative="1" as="geometry" />
        </mxCell>
        <mxCell id="4Bl8RoROlAebQCjJiTwi-21" value="" style="endArrow=classic;html=1;rounded=0;" edge="1" parent="by4M8jhouuiLS1jpNMKc-24" source="by4M8jhouuiLS1jpNMKc-14" target="4Bl8RoROlAebQCjJiTwi-19">
          <mxGeometry width="50" height="50" relative="1" as="geometry">
            <mxPoint x="140" y="387.71145510835913" as="sourcePoint" />
            <mxPoint x="321" y="334.5882352941176" as="targetPoint" />
            <Array as="points" />
          </mxGeometry>
        </mxCell>
        <mxCell id="4Bl8RoROlAebQCjJiTwi-27" value="startUpFlag" style="edgeLabel;html=1;align=center;verticalAlign=middle;resizable=0;points=[];" vertex="1" connectable="0" parent="4Bl8RoROlAebQCjJiTwi-21">
          <mxGeometry x="0.2343" y="-1" relative="1" as="geometry">
            <mxPoint x="15" y="9" as="offset" />
          </mxGeometry>
        </mxCell>
        <mxCell id="4Bl8RoROlAebQCjJiTwi-22" value="" style="endArrow=classic;html=1;rounded=0;" edge="1" parent="by4M8jhouuiLS1jpNMKc-24" source="by4M8jhouuiLS1jpNMKc-14" target="4Bl8RoROlAebQCjJiTwi-18">
          <mxGeometry width="50" height="50" relative="1" as="geometry">
            <mxPoint x="370" y="585.5294117647059" as="sourcePoint" />
            <mxPoint x="420" y="539.0588235294117" as="targetPoint" />
          </mxGeometry>
        </mxCell>
        <mxCell id="4Bl8RoROlAebQCjJiTwi-26" value="drawDisplayFlag" style="edgeLabel;html=1;align=center;verticalAlign=middle;resizable=0;points=[];" vertex="1" connectable="0" parent="4Bl8RoROlAebQCjJiTwi-22">
          <mxGeometry x="-0.1267" y="1" relative="1" as="geometry">
            <mxPoint as="offset" />
          </mxGeometry>
        </mxCell>
        <mxCell id="4Bl8RoROlAebQCjJiTwi-28" value="" style="endArrow=classic;html=1;rounded=0;" edge="1" parent="by4M8jhouuiLS1jpNMKc-24" source="4Bl8RoROlAebQCjJiTwi-19" target="by4M8jhouuiLS1jpNMKc-5">
          <mxGeometry width="50" height="50" relative="1" as="geometry">
            <mxPoint x="370" y="399.6470588235294" as="sourcePoint" />
            <mxPoint x="420" y="353.1764705882353" as="targetPoint" />
            <Array as="points">
              <mxPoint x="175" y="306.70588235294116" />
            </Array>
          </mxGeometry>
        </mxCell>
        <mxCell id="4Bl8RoROlAebQCjJiTwi-29" value="" style="endArrow=classic;html=1;rounded=0;" edge="1" parent="by4M8jhouuiLS1jpNMKc-24" source="4Bl8RoROlAebQCjJiTwi-16" target="by4M8jhouuiLS1jpNMKc-5">
          <mxGeometry width="50" height="50" relative="1" as="geometry">
            <mxPoint x="370" y="399.6470588235294" as="sourcePoint" />
            <mxPoint x="420" y="353.1764705882353" as="targetPoint" />
            <Array as="points">
              <mxPoint x="605" y="306.70588235294116" />
            </Array>
          </mxGeometry>
        </mxCell>
        <mxCell id="4Bl8RoROlAebQCjJiTwi-30" value="" style="endArrow=classic;html=1;rounded=0;" edge="1" parent="by4M8jhouuiLS1jpNMKc-24" source="4Bl8RoROlAebQCjJiTwi-18" target="by4M8jhouuiLS1jpNMKc-5">
          <mxGeometry width="50" height="50" relative="1" as="geometry">
            <mxPoint x="370" y="585.5294117647059" as="sourcePoint" />
            <mxPoint x="420" y="539.0588235294117" as="targetPoint" />
            <Array as="points">
              <mxPoint x="390" y="576.2352941176471" />
              <mxPoint x="740" y="576.2352941176471" />
              <mxPoint x="740" y="306.70588235294116" />
            </Array>
          </mxGeometry>
        </mxCell>
        <mxCell id="by4M8jhouuiLS1jpNMKc-1" value="&lt;p style=&quot;border-color: var(--border-color); margin: 0px 0px 0px 4px;&quot;&gt;&lt;span style=&quot;background-color: initial;&quot;&gt;void drawDisplaySet() / drawDisplayFlag.set()&lt;/span&gt;&lt;br&gt;&lt;/p&gt;&lt;p style=&quot;border-color: var(--border-color); margin: 0px 0px 0px 4px;&quot;&gt;void startUpSet() / startUpFlag.set()&lt;/p&gt;&lt;p style=&quot;border-color: var(--border-color); margin: 0px 0px 0px 4px;&quot;&gt;void gameOverSet() / gameOverFlag.set()&amp;nbsp;&lt;/p&gt;" style="shape=rect;rounded=1;html=1;whiteSpace=wrap;align=left;spacingLeft=13;" parent="by4M8jhouuiLS1jpNMKc-24" vertex="1">
          <mxGeometry x="250" y="56.689411764705895" width="410" height="63.199999999999996" as="geometry" />
        </mxCell>
        <mxCell id="by4M8jhouuiLS1jpNMKc-2" value="" style="shape=ellipse;html=1;fillColor=strokeColor;fontSize=18;fontColor=#ffffff;" parent="by4M8jhouuiLS1jpNMKc-24" vertex="1">
          <mxGeometry x="120" y="68.29000000000002" width="40" height="40" as="geometry" />
        </mxCell>
        <mxCell id="by4M8jhouuiLS1jpNMKc-3" style="edgeStyle=orthogonalEdgeStyle;rounded=0;orthogonalLoop=1;jettySize=auto;html=1;" parent="by4M8jhouuiLS1jpNMKc-24" source="by4M8jhouuiLS1jpNMKc-2" target="by4M8jhouuiLS1jpNMKc-1" edge="1">
          <mxGeometry relative="1" as="geometry" />
        </mxCell>
      </root>
    </mxGraphModel>
  </diagram>
</mxfile>
